<svg width="20" height="30" viewBox="0 0 20 30" fill="none" xmlns="http://www.w3.org/2000/svg">
<path d="M19.3505 3.29819C19.7587 2.92641 19.981 2.43468 19.9704 1.9266C19.9598 1.41852 19.7173 0.933748 19.2939 0.574423C18.8705 0.215097 18.2992 0.00926971 17.7005 0.000305176C17.1018 -0.00865936 16.5223 0.179939 16.0842 0.526365L0.677408 13.601C0.462652 13.7831 0.29229 13.9994 0.176058 14.2374C0.0598259 14.4755 0 14.7306 0 14.9882C0 15.2459 0.0598259 15.501 0.176058 15.739C0.29229 15.9771 0.462652 16.1933 0.677408 16.3755L16.0842 29.4501C16.5203 29.8072 17.1042 30.0046 17.7101 29.9999C18.3161 29.9952 18.8956 29.7887 19.3239 29.4249C19.7522 29.0611 19.9949 28.5691 19.9999 28.0549C20.0049 27.5407 19.7717 27.0454 19.3505 26.6757L5.57678 14.9869L19.3505 3.29819Z" fill="white"/>
</svg>
