<svg width="25" height="35" viewBox="0 0 25 35" fill="none" xmlns="http://www.w3.org/2000/svg">
<path d="M12.5001 0C5.60752 0 0 5.19349 0 11.5771C0 14.1482 1.77271 18.3399 5.41913 24.3919C7.99845 28.6725 10.5353 32.2416 10.6419 32.3914L12.5001 35L14.3582 32.3915C14.4648 32.2416 17.0019 28.6725 19.5809 24.392C23.2275 18.3399 25 14.1482 25 11.5772C25.0001 5.19349 19.3926 0 12.5001 0ZM12.5001 17.5C8.92162 17.5 6.02059 14.8132 6.02059 11.4989C6.02059 8.18458 8.92162 5.49782 12.5001 5.49782C16.0785 5.49782 18.9796 8.18458 18.9796 11.4989C18.9796 14.8132 16.0785 17.5 12.5001 17.5Z" fill="#FF7F00"/>
</svg>
