<svg width="25" height="25" viewBox="0 0 25 25" fill="none" xmlns="http://www.w3.org/2000/svg">
<path d="M0 10.4034C0 16.1427 4.6683 20.8069 10.4013 20.8069C13.0426 20.8069 15.4586 19.8136 17.2963 18.1855L23.9251 24.8157C24.0479 24.9386 24.2066 25 24.3704 25C24.5342 25 24.6929 24.9386 24.8157 24.8157C25.0614 24.5699 25.0614 24.1757 24.8157 23.93L18.1818 17.2998C19.8096 15.4618 20.8026 13.0504 20.8026 10.4034C20.8026 4.66414 16.1343 0 10.4013 0C4.6683 0 0 4.66414 0 10.4034ZM19.5485 10.4034C19.5485 15.4464 15.4433 19.5525 10.4013 19.5525C5.35934 19.5525 1.2541 15.4464 1.2541 10.4034C1.2541 5.36043 5.35934 1.25435 10.4013 1.25435C15.4433 1.25435 19.5485 5.35531 19.5485 10.4034Z" fill="white"/>
</svg>
