<svg width="20" height="20" viewBox="0 0 20 20" fill="none" xmlns="http://www.w3.org/2000/svg">
<path d="M11.0196 0.913533L13.2246 5.58541C13.378 5.91035 13.6744 6.1355 14.0174 6.18752L18.9482 6.93674C19.8119 7.06808 20.1565 8.17763 19.5317 8.81428L15.9638 12.4508C15.7159 12.7037 15.6025 13.0683 15.6613 13.4252L16.5034 18.5602C16.651 19.4595 15.7481 20.1452 14.9757 19.7209L10.5658 17.2967C10.2591 17.1282 9.89247 17.1282 9.5858 17.2967L5.17582 19.7209C4.40344 20.1456 3.50056 19.4595 3.64819 18.5602L4.4903 13.4252C4.54903 13.0683 4.43566 12.7037 4.18771 12.4508L0.619843 8.81428C-0.00491184 8.17721 0.339682 7.06766 1.20341 6.93674L6.13416 6.18752C6.47712 6.1355 6.77359 5.91035 6.92693 5.58541L9.13192 0.913533C9.5177 0.0952287 10.6335 0.0952287 11.0196 0.913533Z" fill="#FF7F00"/>
</svg>
