<svg width="30" height="30" viewBox="0 0 30 30" fill="none" xmlns="http://www.w3.org/2000/svg">
<path d="M27.9564 20.0809C26.4325 18.8241 25.0347 18.2131 23.6828 18.2131C21.7273 18.2131 20.3193 19.4898 19.0445 20.7976C18.8979 20.9482 18.7204 21.0184 18.486 21.0184C17.4118 21.0185 15.522 19.6378 12.8692 16.915C9.74826 13.7118 8.56829 11.6745 9.36172 10.8599C11.5126 8.6532 12.1841 6.44104 8.89092 2.23778C7.71199 0.731888 6.55854 0 5.36468 0C3.75463 0 2.5307 1.32083 1.45086 2.48627C1.26417 2.68773 1.08782 2.87804 0.914907 3.0555C-0.305578 4.30796 -0.304951 7.03984 0.916682 10.3637C2.25703 14.0106 4.90349 17.9778 8.36865 21.5345C11.0484 24.2845 13.9641 26.507 16.8008 27.9991C19.2774 29.302 21.6797 30 23.565 30C23.5652 30 23.5655 30 23.5658 30C24.7456 30 25.704 29.7359 26.337 29.1987C27.6227 28.1077 30.0159 26.0869 29.9999 23.6866C29.9911 22.3992 29.3038 21.1927 27.9564 20.0809Z" fill="#FF7F00"/>
</svg>
