<svg width="13" height="12" viewBox="0 0 13 12" fill="none" xmlns="http://www.w3.org/2000/svg">
<path d="M6.00117 12C5.74588 11.9983 5.49407 11.9208 5.26403 11.7732C5.03398 11.6256 4.83147 11.4116 4.67117 11.1467L0.461168 4.34667C0.215162 3.93729 0.0603538 3.44401 0.0143849 2.92302C-0.031584 2.40204 0.0331352 1.87432 0.201168 1.4C0.337447 0.987768 0.559841 0.636551 0.841787 0.388297C1.12373 0.140042 1.45331 0.00524407 1.79117 0H10.2112C10.549 0.00524407 10.8786 0.140042 11.1606 0.388297C11.4425 0.636551 11.6649 0.987768 11.8012 1.4C11.9692 1.87432 12.0339 2.40204 11.988 2.92302C11.942 3.44401 11.7872 3.93729 11.5412 4.34667L7.33117 11.1467C7.17087 11.4116 6.96835 11.6256 6.73831 11.7732C6.50826 11.9208 6.25646 11.9983 6.00117 12Z" fill="#FF7F00"/>
</svg>
