<svg width="12" height="12" viewBox="0 0 12 12" fill="none" xmlns="http://www.w3.org/2000/svg">
<path d="M6 12C5.74476 11.9983 5.493 11.9208 5.263 11.7732C5.033 11.6256 4.83052 11.4116 4.67026 11.1467L0.461078 4.34667C0.21512 3.93729 0.0603421 3.44401 0.0143821 2.92302C-0.0315778 2.40204 0.0331287 1.87432 0.201129 1.4C0.337382 0.987768 0.559732 0.636551 0.841623 0.388297C1.12351 0.140042 1.45303 0.00524407 1.79082 0L10.2092 0C10.547 0.00524407 10.8765 0.140042 11.1584 0.388297C11.4403 0.636551 11.6626 0.987768 11.7989 1.4C11.9669 1.87432 12.0316 2.40204 11.9856 2.92302C11.9397 3.44401 11.7849 3.93729 11.5389 4.34667L7.32974 11.1467C7.16947 11.4116 6.967 11.6256 6.73699 11.7732C6.50699 11.9208 6.25524 11.9983 6 12Z" fill="#0B0A0F"/>
</svg>
