<svg width="20" height="30" viewBox="0 0 20 30" fill="none" xmlns="http://www.w3.org/2000/svg">
<path d="M0.6495 26.7018C0.24128 27.0736 0.019042 27.5653 0.0296056 28.0734C0.0401692 28.5815 0.28271 29.0663 0.70613 29.4256C1.12955 29.7849 1.70079 29.9907 2.2995 29.9997C2.89822 30.0087 3.47766 29.8201 3.91575 29.4736L19.3226 16.399C19.5373 16.2169 19.7077 16.0006 19.8239 15.7626C19.9402 15.5245 20 15.2694 20 15.0118C20 14.7541 19.9402 14.499 19.8239 14.261C19.7077 14.0229 19.5373 13.8067 19.3226 13.6245L3.91575 0.549898C3.47969 0.19282 2.89581 -0.0046269 2.28986 8.23439e-05C1.68392 0.00479159 1.1044 0.211281 0.676114 0.575075C0.247831 0.93887 0.00505596 1.43086 7.80794e-05 1.94509C-0.0048998 2.45931 0.228318 2.95462 0.6495 3.32434L14.4232 15.0131L0.6495 26.7018Z" fill="white"/>
</svg>
