<svg width="30" height="29" viewBox="0 0 30 29" fill="none" xmlns="http://www.w3.org/2000/svg">
<path d="M14.3956 25.9529H6.57088C4.67025 25.9529 3.21902 24.5704 3.21902 22.9862V6.01379C3.21902 4.42486 4.67549 3.04711 6.57088 3.04711H14.5229C15.2257 3.04711 15.8824 2.5277 15.8824 1.77356C15.8824 1.01941 15.2257 0.5 14.5229 0.5H6.57088C3.27008 0.5 0.5 2.92787 0.5 6.01379V22.9862C0.5 26.0786 3.27722 28.5 6.57088 28.5H14.3956C15.0984 28.5 15.7551 27.9806 15.7551 27.2264C15.7551 26.47 15.0895 25.9529 14.3956 25.9529Z" fill="white" stroke="white"/>
<path d="M29.0004 13.0385L23.5411 7.57921L23.1898 7.93054L23.5411 7.57921C23.0084 7.04651 22.1507 7.04651 21.618 7.57921C21.0853 8.11191 21.0853 8.96966 21.618 9.50236L24.7627 12.6471H8.53138C7.77774 12.6471 7.17188 13.253 7.17188 14.0066C7.17188 14.7603 7.77774 15.3661 8.53138 15.3661H24.7627L21.618 18.5109C21.0853 19.0436 21.0853 19.9013 21.618 20.434C21.8768 20.6928 22.2266 20.8351 22.5764 20.8351C22.9161 20.8351 23.2709 20.706 23.5377 20.4311L28.9974 14.9714C29.5315 14.4372 29.5419 13.5718 29.0023 13.0404C29.0017 13.0398 29.001 13.0391 29.0004 13.0385Z" fill="white" stroke="white"/>
</svg>
