<svg width="25" height="19" viewBox="0 0 25 19" fill="none" xmlns="http://www.w3.org/2000/svg">
<path d="M23.0749 0.12793H1.92511C0.864979 0.12793 0 0.992909 0 2.05304V16.9476C0 18.0077 0.864979 18.8727 1.92511 18.8727H23.0749C24.135 18.8727 25 18.0077 25 16.9476V2.05304C25 0.992909 24.135 0.12793 23.0749 0.12793ZM22.7954 1.55198L12.6319 10.244L2.46835 1.55198H22.7954ZM23.5759 16.9476C23.5759 17.2218 23.3492 17.4486 23.0749 17.4486H1.92511C1.65084 17.4486 1.42405 17.2218 1.42405 16.9476V2.53299L12.1677 11.7208C12.173 11.726 12.1835 11.7313 12.1888 11.7366C12.1941 11.7419 12.2046 11.7471 12.2099 11.7524C12.2257 11.763 12.2363 11.7735 12.2521 11.7788C12.2574 11.784 12.2627 11.784 12.2679 11.7893C12.289 11.7999 12.3101 11.8104 12.3312 11.821C12.3365 11.821 12.3418 11.8262 12.347 11.8262C12.3629 11.8315 12.3787 11.8421 12.3998 11.8473C12.4051 11.8473 12.4156 11.8526 12.4209 11.8526C12.4367 11.8579 12.4525 11.8632 12.4684 11.8632C12.4736 11.8632 12.4842 11.8684 12.4895 11.8684C12.5053 11.8737 12.5264 11.8737 12.5422 11.879C12.5475 11.879 12.5527 11.879 12.558 11.879C12.5791 11.879 12.6055 11.8843 12.6266 11.8843C12.6477 11.8843 12.6741 11.8843 12.6951 11.879C12.7004 11.879 12.7057 11.879 12.711 11.879C12.7268 11.879 12.7479 11.8737 12.7637 11.8684C12.769 11.8684 12.7795 11.8632 12.7848 11.8632C12.8006 11.8579 12.8165 11.8526 12.8323 11.8526C12.8376 11.8526 12.8481 11.8473 12.8534 11.8473C12.8692 11.8421 12.885 11.8368 12.9061 11.8262C12.9114 11.8262 12.9167 11.821 12.9219 11.821C12.943 11.8104 12.9641 11.7999 12.9852 11.7893C12.9905 11.784 12.9958 11.784 13.0011 11.7788C13.0169 11.7682 13.0274 11.763 13.0432 11.7524C13.0485 11.7471 13.0591 11.7419 13.0643 11.7366C13.0696 11.7313 13.0802 11.726 13.0854 11.7208L23.5759 2.75979V16.9476Z" fill="white"/>
</svg>
