<svg width="25" height="25" viewBox="0 0 25 25" fill="none" xmlns="http://www.w3.org/2000/svg">
<path fill-rule="evenodd" clip-rule="evenodd" d="M8.14177 4.46294L8.13906 4.46443L8.13627 4.46578L8.11894 4.47375C8.09792 4.48321 8.07017 4.49528 8.01949 4.51729L5.29594 5.69983C4.89717 5.87292 4.52138 6.03604 4.22191 6.20449C3.88799 6.39233 3.56052 6.63332 3.32398 6.99999C3.08746 7.36666 3.01801 7.74099 3.00321 8.09373C2.98995 8.41007 3.02001 8.7829 3.05192 9.17855L3.26947 11.8809C3.27351 11.9312 3.2757 11.9587 3.27707 11.9797L3.27801 11.9972L3.27809 11.9996L3.27801 12.0028L3.27707 12.0203C3.2757 12.0412 3.27351 12.0688 3.26947 12.119L3.05192 14.8213C3.02001 15.217 2.98995 15.5898 3.00321 15.9062C3.01801 16.259 3.08746 16.6333 3.32398 16.9999C3.56052 17.3667 3.88799 17.6076 4.22191 17.7955C4.52137 17.9638 4.89713 18.1271 5.29588 18.3001L8.01949 19.4827C8.07019 19.5047 8.09793 19.5167 8.11896 19.5261L8.13627 19.5341L8.13941 19.5357L8.14177 19.537L8.15814 19.5464C8.1778 19.558 8.20335 19.5735 8.24999 19.6017L10.756 21.1216C11.1229 21.3441 11.4687 21.5538 11.7814 21.7017C12.13 21.8666 12.527 22 13 22C13.473 22 13.8701 21.8666 14.2188 21.7017C14.5315 21.5538 14.8771 21.3441 15.2441 21.1216L17.75 19.6017C17.7967 19.5735 17.8223 19.558 17.8419 19.5464L17.8583 19.537L17.8613 19.5353L17.8638 19.5342L17.8811 19.5261C17.9022 19.5167 17.9299 19.5047 17.9805 19.4827L20.7041 18.3001C21.1028 18.1271 21.4788 17.9638 21.7781 17.7955C22.1121 17.6076 22.4396 17.3667 22.676 16.9999C22.9126 16.6333 22.9821 16.259 22.9968 15.9062C23.0101 15.5898 22.98 15.217 22.9482 14.8213L22.7305 12.119C22.7265 12.0688 22.7243 12.0412 22.723 12.0203L22.7221 12.0028L22.722 11.9996L22.7221 11.9972L22.723 11.9797C22.7243 11.9587 22.7265 11.9312 22.7305 11.8809L22.9482 9.17856C22.98 8.78292 23.0101 8.41009 22.9968 8.09373C22.9821 7.74099 22.9126 7.36666 22.676 6.99999C22.4396 6.63332 22.1121 6.39233 21.7781 6.20449C21.4786 6.03604 21.1029 5.87292 20.7041 5.69984L17.9805 4.51729C17.9299 4.49528 17.9022 4.48321 17.8811 4.47375L17.8638 4.46578L17.8607 4.46424L17.8583 4.46294L17.8419 4.4535C17.8222 4.44194 17.7967 4.42647 17.75 4.39818L15.2441 2.8784C14.8771 2.65585 14.5315 2.44614 14.2188 2.29825C13.8701 2.13333 13.473 2 13 2C12.527 2 12.13 2.13333 11.7814 2.29825C11.4685 2.44614 11.1229 2.65585 10.756 2.8784L8.24999 4.39818C8.20337 4.42647 8.17781 4.44194 8.15814 4.4535L8.14177 4.46294ZM13 15.9777C15.4546 15.9777 17.4443 14.1968 17.4443 12C17.4443 9.8031 15.4546 8.02229 13 8.02229C10.5456 8.02229 8.55578 9.8031 8.55578 12C8.55578 14.1968 10.5456 15.9777 13 15.9777Z" fill="white"/>
</svg>
