<svg width="25" height="25" viewBox="0 0 25 25" fill="none" xmlns="http://www.w3.org/2000/svg">
<path d="M12.4987 10.9895C15.5286 10.9895 17.9936 8.52461 17.9936 5.49475C17.9936 2.46489 15.5286 0 12.4987 0C9.46888 0 7.00391 2.46489 7.00391 5.49475C7.00391 8.52461 9.46888 10.9895 12.4987 10.9895ZM12.4987 2.62697C14.0801 2.62697 15.3666 3.9134 15.3666 5.49475C15.3666 7.07609 14.0801 8.36252 12.4987 8.36252C10.9174 8.36252 9.63088 7.07609 9.63088 5.49475C9.63088 3.9134 10.9174 2.62697 12.4987 2.62697Z" fill="white"/>
<path d="M12.4997 13.6162C6.94711 13.6162 2.42969 18.1336 2.42969 23.6863C2.42969 24.4117 3.01778 24.9997 3.74317 24.9997H21.2563C21.9817 24.9997 22.5698 24.4117 22.5698 23.6863C22.5698 18.1336 18.0524 13.6162 12.4997 13.6162ZM5.17268 22.3728C5.79492 18.893 8.8437 16.2432 12.4997 16.2432C16.1558 16.2432 19.2046 18.893 19.8268 22.3728H5.17268Z" fill="white"/>
</svg>
